<?xml version="1.0" encoding="utf-8"?>
<svg xmlns="http://www.w3.org/2000/svg" viewBox="0 0 44.58 92.53">
    <path d="m42.65,7.63l-30.46,26.73h30.46v7.63H.6v-7.63L31.06,7.63H1.2V0h41.45v7.63Z"/>
    <path d="m44.58,80.03c0,9.37-6.43,12.5-22.41,12.5-18.38,0-22.17-5.17-22.17-16.7h8.11c.06,6.67.72,9.07,14.06,9.07,11.06,0,14.3-1.2,14.3-5.47s-1.26-3.9-7.39-4.63l-14.48-1.68c-11.41-1.32-13.64-5.95-13.64-12.62,0-8.53,7.03-12.07,21.21-12.07,15.38,0,21.21,3.85,21.21,15.38h-8.11c-.06-6.67-2.16-7.75-13.1-7.75-9.25,0-13.1.78-13.1,5.05,0,3.48,3,4.09,9.61,4.81l12.68,1.38c11.23,1.2,13.22,4.87,13.22,12.74Z"/>
</svg>