<svg viewBox="0 0 221 50" xmlns="http://www.w3.org/2000/svg">
    <g>
        <path d="M15.3412 46.2572V42.1233H5.94726L16.4225 1.59723H1.5544V5.79893H10.3401L0 46.2572H15.3412Z" />
        <path d="M30.0072 46.6636C32.7105 46.6636 34.8056 44.495 34.8056 41.852V33.7875C34.8056 33.7875 34.8732 32.2965 33.927 30.6701L24.06 13.5922V5.32436H29.8721V12.3046H34.8056V6.00205C34.8056 3.35905 32.7105 1.19043 30.0072 1.19043H23.9248C21.2891 1.19043 19.1265 3.35905 19.1265 6.00205V13.1178C19.1265 13.1178 19.1265 14.7443 20.0726 16.303L29.8721 33.3809V42.5297H24.06V35.5495H19.1265V41.852C19.1265 44.495 21.2891 46.6636 23.9248 46.6636H30.0072Z" />
        <path d="M54.8851 19.4801V17.801H51.0695L55.3243 1.34009H49.2852V3.04673H52.8538L48.6538 19.4801H54.8851Z" />
        <path d="M64.7332 19.4798V5.88173H62.7568V17.7732H59.847V5.88173H57.8706V17.5255C57.8706 18.599 58.749 19.4798 59.8196 19.4798H61.0274C61.9882 19.4798 62.5372 19.1495 62.8666 18.4063L63.0039 19.4798H64.7332ZM60.6431 4.20261V1.97296H58.9137V4.20261H60.6431ZM63.7176 4.20261V1.97296H61.9882V4.20261H63.7176Z" />
        <path d="M70.3534 19.4794V7.61546H73.3455V5.88129H72.1377C71.122 5.88129 70.6005 6.40429 70.3534 6.9273V5.88129H68.377V19.4794H70.3534Z" />
        <path d="M80.6119 19.4794C81.7099 19.4794 82.5608 18.5986 82.5608 17.525V15.2128H80.6119V17.7728H77.8119V7.61546H80.6119V10.2855H82.5608V7.83568C82.5608 6.76214 81.7099 5.88129 80.6119 5.88129H77.8119C76.7139 5.88129 75.8354 6.76214 75.8354 7.83568V17.525C75.8354 18.5986 76.7139 19.4794 77.8119 19.4794H80.6119Z" />
        <path d="M92.6575 19.4795V7.83573C92.6575 6.7622 91.7791 5.88135 90.7085 5.88135H89.5556C88.6497 5.88135 88.1556 6.32177 87.9086 6.78972V0.678833H85.9321V19.4795H87.9086V7.61552H90.7085V19.4795H92.6575Z" />
        <path d="M100.858 19.4794C101.929 19.4794 102.807 18.5986 102.807 17.525V15.7908H100.831V17.7728H98.0306V13.8915H100.858C101.929 13.8915 102.807 13.0107 102.807 11.9096V7.83568C102.807 6.76214 101.929 5.88129 100.858 5.88129H98.0306C96.96 5.88129 96.0815 6.76214 96.0815 7.83568V17.525C96.0815 18.5986 96.96 19.4794 98.0306 19.4794H100.858ZM100.831 12.1573H98.0306V7.61546H100.831V12.1573Z" />
        <path d="M108.205 19.4794V7.61546H111.198V5.88129H109.99C108.974 5.88129 108.453 6.40429 108.205 6.9273V5.88129H106.229V19.4794H108.205Z" />
        <path d="M53.7321 46.0637C54.8301 46.0637 55.6811 45.1829 55.6811 44.1094V40.8337C55.6811 40.8337 55.7085 40.2281 55.3242 39.5675L51.3164 32.6308V29.2726H53.6772V32.1078H55.6811V29.5478C55.6811 28.4743 54.8301 27.5934 53.7321 27.5934H51.2615C50.1909 27.5934 49.3125 28.4743 49.3125 29.5478V32.4381C49.3125 32.4381 49.3125 33.0987 49.6968 33.7319L53.6772 40.6685V44.3846H51.3164V41.5494H49.3125V44.1094C49.3125 45.1829 50.1909 46.0637 51.2615 46.0637H53.7321Z" />
        <path d="M61.5764 45.8995V34.008H63.6901V32.3014H61.5764V29.2734H59.6V32.3014H57.8706V34.008H59.6V45.8995H61.5764Z" />
        <path d="M73.181 45.8986V32.3005H71.2046V44.1919H68.2948V32.3005H66.3184V43.9442C66.3184 45.0177 67.1968 45.8986 68.2674 45.8986H69.4752C70.4359 45.8986 70.985 45.5683 71.3144 44.825L71.4516 45.8986H73.181Z" />
        <path d="M83.3846 45.8986V27.098H81.4081V32.8235C81.1336 32.5208 80.6944 32.3005 80.0356 32.3005H78.6082C77.5376 32.3005 76.6592 33.1814 76.6592 34.2549V43.9443C76.6592 45.0178 77.5376 45.8986 78.6082 45.8986H83.3846ZM81.4081 44.192H78.6356V34.0347H81.4081V44.192Z" />
        <path d="M89.0077 45.898V32.2999H87.0313V45.898H89.0077ZM89.145 30.4556V28.0883H86.894V30.4556H89.145Z" />
        <path d="M97.2632 45.8986C98.3338 45.8986 99.2122 45.0177 99.2122 43.9442V42.21H97.2358V44.1919H94.4358V40.3107H97.2632C98.3338 40.3107 99.2122 39.4298 99.2122 38.3288V34.2549C99.2122 33.1813 98.3338 32.3005 97.2632 32.3005H94.4358C93.3652 32.3005 92.4868 33.1813 92.4868 34.2549V43.9442C92.4868 45.0177 93.3652 45.8986 94.4358 45.8986H97.2632ZM97.2358 38.5765H94.4358V34.0346H97.2358V38.5765Z" />
        <path d="M104.613 45.8986V34.0346H107.605V32.3005H106.397C105.381 32.3005 104.86 32.8235 104.613 33.3465V32.3005H102.636V45.8986H104.613Z" />
        <path d="M114.871 45.8986C115.942 45.8986 116.82 45.0177 116.82 43.9442V42.21H114.844V44.1919H112.044V40.3107H114.871C115.942 40.3107 116.82 39.4298 116.82 38.3288V34.2549C116.82 33.1813 115.942 32.3005 114.871 32.3005H112.044C110.973 32.3005 110.095 33.1813 110.095 34.2549V43.9442C110.095 45.0177 110.973 45.8986 112.044 45.8986H114.871ZM114.844 38.5765H112.044V34.0346H114.844V38.5765Z" />
        <path d="M127.109 45.8986V34.2549C127.109 33.1813 126.231 32.3005 125.16 32.3005H123.87C122.964 32.3005 122.47 32.7409 122.196 33.2089V32.3005H120.247V45.8986H122.196V34.0346H125.133V45.8986H127.109Z" />
        <path d="M137.258 45.8986V27.098H135.282V32.8235C135.007 32.5208 134.568 32.3005 133.909 32.3005H132.482C131.411 32.3005 130.533 33.1814 130.533 34.2549V43.9443C130.533 45.0178 131.411 45.8986 132.482 45.8986H137.258ZM135.282 44.192H132.509V34.0347H135.282V44.192Z" />
        <path d="M145.511 45.8986C146.582 45.8986 147.46 45.0177 147.46 43.9442V42.21H145.484V44.1919H142.684V40.3107H145.511C146.582 40.3107 147.46 39.4298 147.46 38.3288V34.2549C147.46 33.1813 146.582 32.3005 145.511 32.3005H142.684C141.613 32.3005 140.735 33.1813 140.735 34.2549V43.9442C140.735 45.0177 141.613 45.8986 142.684 45.8986H145.511ZM145.484 38.5765H142.684V34.0346H145.484V38.5765Z" />
        <path d="M157.748 45.8986V34.2549C157.748 33.1813 156.87 32.3005 155.799 32.3005H154.509C153.603 32.3005 153.109 32.7409 152.835 33.2089V32.3005H150.886V45.8986H152.835V34.0346H155.772V45.8986H157.748Z" />
        <path d="M166.719 45.8986V44.2195H162.931L167.021 32.3005H161.009V34.0346H164.413L160.46 45.8986H166.719Z" />
        <path d="M174.288 45.8986C175.359 45.8986 176.237 45.0177 176.237 43.9442V42.21H174.261V44.1919H171.461V40.3107H174.288C175.359 40.3107 176.237 39.4298 176.237 38.3288V34.2549C176.237 33.1813 175.359 32.3005 174.288 32.3005H171.461C170.39 32.3005 169.512 33.1813 169.512 34.2549V43.9442C169.512 45.0177 170.39 45.8986 171.461 45.8986H174.288ZM174.261 38.5765H171.461V34.0346H174.261V38.5765Z" />
        <path d="M181.636 45.898V32.2999H179.659V45.898H181.636ZM181.773 30.4556V28.0883H179.522V30.4556H181.773Z" />
        <path d="M188.111 45.8995V34.008H190.224V32.3014H188.111V29.2734H186.134V32.3014H184.405V34.008H186.134V45.8995H188.111Z" />
        <path d="M199.714 45.8986V32.3005H197.738V44.1919H194.828V32.3005H192.852V43.9442C192.852 45.0177 193.73 45.8986 194.801 45.8986H196.008C196.969 45.8986 197.518 45.5683 197.848 44.825L197.985 45.8986H199.714Z" />
        <path d="M210.218 45.8986V34.2549C210.218 33.1813 209.34 32.3005 208.269 32.3005H206.979C206.073 32.3005 205.579 32.7409 205.304 33.2089V32.3005H203.355V45.8986H205.304V34.0346H208.242V45.8986H210.218Z" />
        <path d="M218.394 50.0001C219.492 50.0001 220.37 49.1467 220.37 48.0457V32.3005H215.594C214.496 32.3005 213.645 33.1813 213.645 34.2549V43.5864C213.645 44.6599 214.496 45.5407 215.594 45.5407H216.72C217.653 45.5407 218.12 45.1278 218.394 44.6599V48.2934H215.594V46.9721H213.645V48.0457C213.645 49.1467 214.496 50.0001 215.594 50.0001H218.394ZM218.394 43.8066H215.594V34.0347H218.394V43.8066Z" />
    </g>
</svg>
