<?xml version="1.0" encoding="utf-8"?>
<svg viewBox="0 0 110.99 18.46" xmlns="http://www.w3.org/2000/svg">
    <path d="m7.52,1.38L2.15,6.09h5.37v1.35H.11v-1.35L5.48,1.38H.21V.03h7.31v1.35Z"/>
    <path d="m13.94,7.44h-1.35v-.62c-.28.44-.9.83-2.01.83s-2.55-.64-2.55-2.06v-3.44h1.35v2.79c0,1.07.66,1.47,1.36,1.47,1.53,0,1.85-.81,1.85-1.5v-2.75h1.36v5.3ZM10.63,0v1.32h-1.43V0h1.43Zm2.24,0v1.32h-1.43V0h1.43Z"/>
    <path d="m17.81,3.18c-.89,0-1.75.36-1.75,1.5v2.75h-1.36V2.14h1.35v.73c.23-.47.79-.93,2.01-.93s2.34.53,2.34,2.33h-1.36c0-.76-.59-1.09-1.24-1.09Z"/>
    <path d="m25.74,5.18h1.35c0,1.33-.96,2.4-3.22,2.4-1.97,0-3.33-.95-3.32-2.84.01-1.74,1.23-2.81,3.32-2.81,2.26,0,3.22,1.07,3.22,2.41h-1.35c-.01-.67-.57-1.17-1.89-1.17-1.21,0-1.98.61-1.95,1.58.03.97.74,1.59,1.95,1.59,1.31,0,1.88-.5,1.89-1.17Z"/>
    <path d="m27.47.02h1.33v2.85c.28-.44.79-.93,1.91-.93,1.18,0,2.66.64,2.66,2.06v3.44h-1.35v-2.79c0-1.07-.66-1.47-1.46-1.47-1,0-1.75.7-1.75,1.5v2.75h-1.35V.02Z"/>
    <path d="m38.84,5.42h1.35c0,1-1.06,2.19-3.13,2.19-1.91,0-3.21-1.06-3.21-2.86s1.39-2.79,3.21-2.79,3.14,1.14,3.14,3.04h-5c.1.41.33,1.38,1.86,1.37,1.55-.01,1.77-.61,1.78-.95Zm-3.6-1.36h3.56c-.23-.66-.75-1.07-1.74-1.07s-1.58.44-1.82,1.07Z"/>
    <path d="m43.82,3.18c-.89,0-1.75.36-1.75,1.5v2.75h-1.36V2.14h1.35v.73c.23-.47.79-.93,2.01-.93s2.34.53,2.34,2.33h-1.36c0-.76-.59-1.09-1.24-1.09Z"/>
    <path d="m7.86,14.14c0,1.65-1.13,2.2-3.95,2.2-3.24,0-3.91-.91-3.91-2.95h1.43c.01,1.18.13,1.6,2.48,1.6,1.95,0,2.52-.21,2.52-.96s-.22-.69-1.3-.82l-2.55-.3c-2.01-.23-2.4-1.05-2.4-2.22,0-1.5,1.24-2.13,3.74-2.13,2.71,0,3.74.68,3.74,2.71h-1.43c-.01-1.18-.38-1.37-2.31-1.37-1.63,0-2.31.14-2.31.89,0,.61.53.72,1.7.85l2.24.24c1.98.21,2.33.86,2.33,2.25Z"/>
    <path d="m9.28,14.12v-2.11h-1.06v-1.13h1.06v-1.8h1.35v1.8h1.27v1.13h-1.27v2.01c0,.49.08.91.65.91h.47v1.24h-.96c-1.19,0-1.49-.92-1.49-2.06Z"/>
    <path d="m18.24,16.18h-1.35v-.62c-.28.44-.9.83-2.01.83s-2.55-.64-2.55-2.06v-3.44h1.35v2.79c0,1.07.66,1.47,1.36,1.47,1.53,0,1.85-.81,1.85-1.5v-2.75h1.36v5.3Z"/>
    <path d="m18.57,13.54c0-1.81,1.27-2.83,2.66-2.83s2.07.49,2.34.93v-2.88h1.36v7.42h-1.36v-.65c-.34.52-.99.85-2.1.85-1.53,0-2.9-1.02-2.9-2.83h0Zm1.35.01c0,.95.71,1.59,1.67,1.59s1.98-.39,1.98-1.4v-.39c0-1.01-.77-1.4-1.77-1.4-1.18,0-1.89.65-1.89,1.6Z"/>
    <path d="m26.99,10.19h-1.43v-1.43h1.43v1.43Zm-.04,5.99h-1.35v-5.37h1.35v5.37Z"/>
    <path d="m32.44,14.17h1.35c0,1-1.06,2.19-3.13,2.19-1.91,0-3.21-1.06-3.21-2.86s1.39-2.79,3.21-2.79,3.14,1.14,3.14,3.04h-5c.1.41.33,1.38,1.86,1.37,1.55-.01,1.77-.61,1.78-.95Zm-3.6-1.36h3.56c-.23-.66-.75-1.07-1.74-1.07s-1.58.44-1.82,1.07Z"/>
    <path d="m37.43,11.92c-.89,0-1.75.36-1.75,1.5v2.75h-1.36v-5.3h1.35v.73c.23-.47.79-.93,2.01-.93s2.34.53,2.34,2.33h-1.36c0-.76-.59-1.09-1.24-1.09Z"/>
    <path d="m45.16,14.17h1.35c0,1-1.06,2.19-3.13,2.19-1.91,0-3.21-1.06-3.21-2.86s1.39-2.79,3.21-2.79,3.14,1.14,3.14,3.04h-5c.1.41.33,1.38,1.86,1.37,1.55-.01,1.77-.61,1.78-.95Zm-3.6-1.36h3.56c-.23-.66-.75-1.07-1.74-1.07s-1.58.44-1.82,1.07Z"/>
    <path d="m47.03,10.88h1.35v.63c.28-.44.9-.83,2.01-.83s2.55.64,2.55,2.06v3.44h-1.35v-2.79c0-1.07-.66-1.47-1.36-1.47-1.53,0-1.85.81-1.85,1.5v2.75h-1.36v-5.3Z"/>
    <path d="m53.31,13.54c0-1.81,1.27-2.83,2.66-2.83s2.07.49,2.34.93v-2.88h1.36v7.42h-1.36v-.65c-.34.52-.99.85-2.1.85-1.53,0-2.9-1.02-2.9-2.83h0Zm1.35.01c0,.95.71,1.59,1.67,1.59s1.98-.39,1.98-1.4v-.39c0-1.01-.77-1.4-1.77-1.4-1.18,0-1.89.65-1.89,1.6Z"/>
    <path d="m64.96,14.17h1.35c0,1-1.06,2.19-3.13,2.19-1.91,0-3.21-1.06-3.21-2.86s1.39-2.79,3.21-2.79,3.14,1.14,3.14,3.04h-5c.1.41.33,1.38,1.86,1.37,1.55-.01,1.77-.61,1.78-.95Zm-3.6-1.36h3.56c-.23-.66-.75-1.07-1.74-1.07s-1.58.44-1.82,1.07Z"/>
    <path d="m66.84,10.88h1.35v.63c.28-.44.9-.83,2.01-.83s2.55.64,2.55,2.06v3.44h-1.35v-2.79c0-1.07-.66-1.47-1.36-1.47-1.53,0-1.85.81-1.85,1.5v2.75h-1.36v-5.3Z"/>
    <path d="m78.8,14.94v1.24h-5.49v-1.24l3.63-2.82h-3.51v-1.24h5.21v1.24l-3.64,2.82h3.79Z"/>
    <path d="m83.73,14.17h1.35c0,1-1.06,2.19-3.13,2.19-1.91,0-3.21-1.06-3.21-2.86s1.39-2.79,3.21-2.79,3.14,1.14,3.14,3.04h-5c.1.41.33,1.38,1.86,1.37,1.55-.01,1.77-.61,1.78-.95Zm-3.6-1.36h3.56c-.23-.66-.75-1.07-1.74-1.07s-1.58.44-1.82,1.07Z"/>
    <path d="m87,10.19h-1.43v-1.43h1.43v1.43Zm-.04,5.99h-1.35v-5.37h1.35v5.37Z"/>
    <path d="m88.49,14.12v-2.11h-1.06v-1.13h1.06v-1.8h1.35v1.8h1.27v1.13h-1.27v2.01c0,.49.08.91.65.91h.47v1.24h-.96c-1.19,0-1.49-.92-1.49-2.06Z"/>
    <path d="m97.45,16.18h-1.35v-.62c-.28.44-.9.83-2.01.83s-2.55-.64-2.55-2.06v-3.44h1.35v2.79c0,1.07.66,1.47,1.36,1.47,1.53,0,1.85-.81,1.85-1.5v-2.75h1.36v5.3Z"/>
    <path d="m98.22,10.88h1.35v.63c.28-.44.9-.83,2.01-.83s2.55.64,2.55,2.06v3.44h-1.35v-2.79c0-1.07-.66-1.47-1.36-1.47-1.53,0-1.85.81-1.85,1.5v2.75h-1.36v-5.3Z"/>
    <path d="m107.54,10.68c1.11,0,1.76.33,2.1.85v-.65h1.36v4.98l-1.36.22v-.67c-.28.44-1.02.93-2.34.93s-2.66-1.02-2.66-2.83h0c0-1.82,1.38-2.84,2.9-2.84Zm.59,7.78h-2.59v-1.32h2.16c1.07,0,1.93-.29,1.93-1.05l1.36-.24c0,2.03-1.38,2.62-2.86,2.62Zm1.5-4.75v-.39c0-1.01-.99-1.4-1.98-1.4s-1.67.64-1.67,1.59.71,1.6,1.89,1.6c1,0,1.77-.39,1.77-1.4Z"/>
</svg>