<?xml version="1.0" encoding="UTF-8"?>
<svg xmlns="http://www.w3.org/2000/svg" width="300px" height="300px" viewBox="0 0 32 32" fill="none">
  <rect width="32" height="32" fill="white"></rect>
  <path d="M14.7917 28.7676V26.4039H9.40823L15.4114 3.23254H6.89079V5.63493H11.9257L6 28.7676H14.7917Z" fill="black"></path>
  <path d="M23.1965 29C24.7457 29 25.9463 27.7601 25.9463 26.2489V21.6379C25.9463 21.6379 25.985 20.7854 25.4428 19.8554L19.7882 10.0909V5.36364H23.119V9.35469H25.9463V5.75112C25.9463 4.23994 24.7457 3 23.1965 3H19.7108C18.2003 3 16.9609 4.23994 16.9609 5.75112V9.81967C16.9609 9.81967 16.9609 10.7496 17.5032 11.6408L23.119 21.4054V26.6364H19.7882V22.6453H16.9609V26.2489C16.9609 27.7601 18.2003 29 19.7108 29H23.1965Z" fill="black"></path>
</svg>
