<?xml version="1.0" encoding="utf-8"?>
<svg xmlns="http://www.w3.org/2000/svg" viewBox="0 0 32 32">
    <rect width="32" height="32" fill="white"></rect>
    <path d="M22.22,4.31L13,12.4h9.22v2.31H9.5V12.4l9.22-8.09H9.68V2h12.54V4.31z"/>
    <path d="M22.81,26.22c0,2.84-1.95,3.78-6.78,3.78c-5.56,0-6.71-1.56-6.71-5.05h2.45c0.02,2.02,0.22,2.74,4.25,2.74 c3.35,0,4.33-0.36,4.33-1.66c0-1.29-0.38-1.18-2.24-1.4l-4.38-0.51c-3.45-0.4-4.13-1.8-4.13-3.82c0-2.58,2.13-3.65,6.42-3.65 c4.65,0,6.42,1.17,6.42,4.65h-2.45c-0.02-2.02-0.65-2.35-3.96-2.35c-2.8,0-3.96,0.24-3.96,1.53c0,1.05,0.91,1.24,2.91,1.46 l3.84,0.42C22.2,22.73,22.81,23.84,22.81,26.22L22.81,26.22z"/>
</svg>
