<?xml version="1.0" encoding="UTF-8"?>
<svg xmlns="http://www.w3.org/2000/svg" width="300px" height="68px" viewBox="0 0 300 68" fill="none">
  <path d="M20.8776 61.19V55.577H8.09351L22.3491 0.552124H2.11535V6.25705H14.0717L0 61.19H20.8776Z" fill="black"></path>
  <path d="M40.8358 61.742C44.5146 61.742 47.3658 58.7975 47.3658 55.2089V44.2592C47.3658 44.2592 47.4577 42.2348 46.1701 40.0265L32.7423 16.8387V5.61291H40.6518V15.0904H47.3658V6.53306C47.3658 2.94448 44.5146 0 40.8358 0H32.5583C28.9714 0 26.0283 2.94448 26.0283 6.53306V16.1946C26.0283 16.1946 26.0283 18.403 27.3159 20.5193L40.6518 43.7071V56.1291H32.7423V46.6516H26.0283V55.2089C26.0283 58.7975 28.9714 61.742 32.5583 61.742H40.8358Z" fill="black"></path>
  <path d="M76.2401 25.3629V23.0976H71.0808L76.8339 0.891113H68.6682V3.19346H73.4934L67.8145 25.3629H76.2401Z" fill="black"></path>
  <path d="M89.5566 25.3631V7.0186H86.8842V23.0608H82.9498V7.0186H80.2773V22.7266C80.2773 24.1748 81.4651 25.3631 82.9127 25.3631H84.5458C85.8449 25.3631 86.5872 24.9175 87.0326 23.9149L87.2182 25.3631H89.5566ZM84.0262 4.75339V1.74548H81.6878V4.75339H84.0262ZM88.1833 4.75339V1.74548H85.8449V4.75339H88.1833Z" fill="black"></path>
  <path d="M97.1558 25.3628V9.3578H101.202V7.01831H99.5684C98.1951 7.01831 97.4899 7.72387 97.1558 8.42943V7.01831H94.4834V25.3628H97.1558Z" fill="black"></path>
  <path d="M111.027 25.3628C112.511 25.3628 113.662 24.1745 113.662 22.7263V19.607H111.027V23.0605H107.241V9.3578H111.027V12.9599H113.662V9.65488C113.662 8.20662 112.511 7.01831 111.027 7.01831H107.241C105.756 7.01831 104.568 8.20662 104.568 9.65488V22.7263C104.568 24.1745 105.756 25.3628 107.241 25.3628H111.027Z" fill="black"></path>
  <path d="M127.313 25.363V9.65501C127.313 8.20676 126.126 7.01845 124.678 7.01845H123.119C121.894 7.01845 121.226 7.6126 120.892 8.24389V0H118.22V25.363H120.892V9.35793H124.678V25.363H127.313Z" fill="black"></path>
  <path d="M138.403 25.3628C139.85 25.3628 141.038 24.1745 141.038 22.7263V20.3868H138.366V23.0605H134.58V17.8245H138.403C139.85 17.8245 141.038 16.6362 141.038 15.1508V9.65488C141.038 8.20662 139.85 7.01831 138.403 7.01831H134.58C133.132 7.01831 131.944 8.20662 131.944 9.65488V22.7263C131.944 24.1745 133.132 25.3628 134.58 25.3628H138.403ZM138.366 15.485H134.58V9.3578H138.366V15.485Z" fill="black"></path>
  <path d="M148.341 25.3628V9.3578H152.387V7.01831H150.754C149.381 7.01831 148.675 7.72387 148.341 8.42943V7.01831H145.669V25.3628H148.341Z" fill="black"></path>
  <path d="M74.681 61.2262C76.1657 61.2262 77.3163 60.0379 77.3163 58.5896V54.1706C77.3163 54.1706 77.3534 53.3536 76.8338 52.4624L71.4146 43.1045V38.574H74.6067V42.3989H77.3163V38.9454C77.3163 37.4971 76.1657 36.3088 74.681 36.3088H71.3404C69.8928 36.3088 68.7051 37.4971 68.7051 38.9454V42.8445C68.7051 42.8445 68.7051 43.7358 69.2247 44.5899L74.6067 53.9478V58.961H71.4146V55.1361H68.7051V58.5896C68.7051 60.0379 69.8928 61.2262 71.3404 61.2262H74.681Z" fill="black"></path>
  <path d="M85.2882 61.0036V44.9615H88.1462V42.6591H85.2882V38.5743H82.6157V42.6591H80.2773V44.9615H82.6157V61.0036H85.2882Z" fill="black"></path>
  <path d="M100.978 61.0036V42.6591H98.3051V58.7012H94.3707V42.6591H91.6982V58.367C91.6982 59.8153 92.886 61.0036 94.3336 61.0036H95.9667C97.2658 61.0036 98.0082 60.558 98.4536 59.5553L98.6392 61.0036H100.978Z" fill="black"></path>
  <path d="M114.775 61.0037V35.6407H112.103V43.3648C111.732 42.9563 111.138 42.6592 110.247 42.6592H108.317C106.869 42.6592 105.682 43.8475 105.682 45.2958V58.3672C105.682 59.8154 106.869 61.0037 108.317 61.0037H114.775ZM112.103 58.7014H108.354V44.9987H112.103V58.7014Z" fill="black"></path>
  <path d="M122.376 61.0034V42.6589H119.703V61.0034H122.376ZM122.561 40.1709V36.9773H119.518V40.1709H122.561Z" fill="black"></path>
  <path d="M133.539 61.0036C134.987 61.0036 136.175 59.8153 136.175 58.367V56.0275H133.502V58.7012H129.716V53.4652H133.539C134.987 53.4652 136.175 52.2769 136.175 50.7915V45.2956C136.175 43.8474 134.987 42.6591 133.539 42.6591H129.716C128.269 42.6591 127.081 43.8474 127.081 45.2956V58.367C127.081 59.8153 128.269 61.0036 129.716 61.0036H133.539ZM133.502 51.1258H129.716V44.9985H133.502V51.1258Z" fill="black"></path>
  <path d="M143.478 61.0036V44.9985H147.524V42.6591H145.891C144.517 42.6591 143.812 43.3646 143.478 44.0702V42.6591H140.806V61.0036H143.478Z" fill="black"></path>
  <path d="M157.351 61.0036C158.799 61.0036 159.986 59.8153 159.986 58.367V56.0275H157.314V58.7012H153.528V53.4652H157.351C158.799 53.4652 159.986 52.2769 159.986 50.7915V45.2956C159.986 43.8474 158.799 42.6591 157.351 42.6591H153.528C152.08 42.6591 150.893 43.8474 150.893 45.2956V58.367C150.893 59.8153 152.08 61.0036 153.528 61.0036H157.351ZM157.314 51.1258H153.528V44.9985H157.314V51.1258Z" fill="black"></path>
  <path d="M173.896 61.0036V45.2956C173.896 43.8474 172.708 42.6591 171.26 42.6591H169.516C168.291 42.6591 167.623 43.2532 167.252 43.8845V42.6591H164.616V61.0036H167.252V44.9985H171.223V61.0036H173.896Z" fill="black"></path>
  <path d="M187.619 61.0037V35.6407H184.947V43.3648C184.575 42.9563 183.982 42.6592 183.091 42.6592H181.161C179.713 42.6592 178.525 43.8475 178.525 45.2958V58.3672C178.525 59.8154 179.713 61.0037 181.161 61.0037H187.619ZM184.947 58.7014H181.198V44.9987H184.947V58.7014Z" fill="black"></path>
  <path d="M198.784 61.0036C200.231 61.0036 201.419 59.8153 201.419 58.367V56.0275H198.746V58.7012H194.961V53.4652H198.784C200.231 53.4652 201.419 52.2769 201.419 50.7915V45.2956C201.419 43.8474 200.231 42.6591 198.784 42.6591H194.961C193.513 42.6591 192.325 43.8474 192.325 45.2956V58.367C192.325 59.8153 193.513 61.0036 194.961 61.0036H198.784ZM198.746 51.1258H194.961V44.9985H198.746V51.1258Z" fill="black"></path>
  <path d="M215.326 61.0036V45.2956C215.326 43.8474 214.138 42.6591 212.691 42.6591H210.946C209.721 42.6591 209.053 43.2532 208.682 43.8845V42.6591H206.047V61.0036H208.682V44.9985H212.654V61.0036H215.326Z" fill="black"></path>
  <path d="M227.456 61.0036V58.7384H222.334L227.864 42.6591H219.736V44.9985H224.338L218.993 61.0036H227.456Z" fill="black"></path>
  <path d="M237.69 61.0036C239.137 61.0036 240.325 59.8153 240.325 58.367V56.0275H237.653V58.7012H233.867V53.4652H237.69C239.137 53.4652 240.325 52.2769 240.325 50.7915V45.2956C240.325 43.8474 239.137 42.6591 237.69 42.6591H233.867C232.419 42.6591 231.231 43.8474 231.231 45.2956V58.367C231.231 59.8153 232.419 61.0036 233.867 61.0036H237.69ZM237.653 51.1258H233.867V44.9985H237.653V51.1258Z" fill="black"></path>
  <path d="M247.628 61.0034V42.6589H244.956V61.0034H247.628ZM247.814 40.1709V36.9773H244.771V40.1709H247.814Z" fill="black"></path>
  <path d="M256.378 61.0036V44.9615H259.236V42.6591H256.378V38.5743H253.706V42.6591H251.367V44.9615H253.706V61.0036H256.378Z" fill="black"></path>
  <path d="M272.069 61.0036V42.6591H269.397V58.7012H265.462V42.6591H262.79V58.367C262.79 59.8153 263.978 61.0036 265.425 61.0036H267.059C268.358 61.0036 269.1 60.558 269.545 59.5553L269.731 61.0036H272.069Z" fill="black"></path>
  <path d="M286.277 61.0036V45.2956C286.277 43.8474 285.09 42.6591 283.642 42.6591H281.898C280.673 42.6591 280.005 43.2532 279.633 43.8845V42.6591H276.998V61.0036H279.633V44.9985H283.605V61.0036H286.277Z" fill="black"></path>
  <path d="M297.327 66.5367C298.811 66.5367 299.999 65.3855 299.999 63.9001V42.6591H293.541C292.056 42.6591 290.905 43.8474 290.905 45.2956V57.8843C290.905 59.3325 292.056 60.5208 293.541 60.5208H295.062C296.324 60.5208 296.955 59.9638 297.327 59.3325V64.2343H293.541V62.4518H290.905V63.9001C290.905 65.3855 292.056 66.5367 293.541 66.5367H297.327ZM297.327 58.1814H293.541V44.9985H297.327V58.1814Z" fill="black"></path>
</svg>
